<svg width="694" height="340" viewBox="0 0 694 340" fill="none" xmlns="http://www.w3.org/2000/svg">
<g clip-path="url(#clip0)">
<path opacity="0.3" d="M354.143 451.496H353.143V452.496V459.961V460.961H354.143H354.482C356.203 460.961 357.554 462.442 357.554 464.372V470.819C357.554 471.72 357.165 472.584 356.555 473.228C355.94 473.878 355.171 474.23 354.482 474.23H354.143H353.143V475.23V499H148.501V475.23V474.23H147.501H147.161C145.339 474.23 143.75 472.642 143.75 470.819V464.372C143.75 462.549 145.339 460.961 147.161 460.961H147.501H148.501V459.961V452.496V451.496H147.501C145.156 451.496 139 448.043 139 437.566C139 432.485 141.202 429.331 143.457 427.076C144.579 425.954 145.702 425.152 146.543 424.632C146.962 424.372 147.309 424.184 147.547 424.063C147.666 424.002 147.757 423.958 147.817 423.93C147.847 423.917 147.868 423.907 147.882 423.901L147.895 423.895L147.895 423.895L147.895 423.895L147.896 423.894L147.896 423.894L148.126 423.796L148.283 423.599C177.66 386.707 186.165 340.302 186.165 300.484C186.165 275.121 182.846 252.15 179.529 235.522C177.87 227.206 176.211 220.473 174.965 215.816C174.342 213.487 173.823 211.677 173.459 210.448C173.277 209.833 173.133 209.363 173.035 209.047C172.991 208.905 172.957 208.794 172.931 208.714V201.404V200.959L172.601 200.662L172.601 200.661L172.6 200.661L172.599 200.659L172.583 200.645C172.569 200.632 172.545 200.609 172.514 200.579C172.452 200.519 172.358 200.427 172.243 200.307C172.011 200.065 171.691 199.711 171.348 199.269C170.653 198.374 169.902 197.17 169.547 195.844C169.199 194.543 169.234 193.147 170.069 191.755C170.921 190.335 172.681 188.794 176.047 187.398L176.073 187.387L176.099 187.374L175.664 186.474C176.099 187.374 176.1 187.374 176.1 187.374L176.101 187.374L176.103 187.372L176.111 187.369L176.138 187.355C176.161 187.344 176.194 187.328 176.235 187.307C176.319 187.264 176.438 187.202 176.589 187.121C176.89 186.96 177.317 186.722 177.827 186.412C178.845 185.793 180.206 184.882 181.573 183.714C184.263 181.414 187.183 177.936 187.183 173.58C187.183 170.989 186.105 168.143 183.45 165.368V161.365C183.45 160.221 184.36 159.311 185.504 159.311H186.504V158.311V150.507C186.504 146.471 184.716 142.759 182.154 139.507C179.591 136.254 176.198 133.39 172.847 131.028C169.49 128.661 166.14 126.771 163.632 125.474C162.377 124.825 161.33 124.323 160.595 123.983C160.382 123.884 160.196 123.799 160.037 123.728V66H188.915V83.3229V84.3229H189.915H221.132H222.132V83.3229V66H280.869V83.3229V84.3229H281.869H313.086H314.086V83.3229V66H341.945V123.728C341.787 123.799 341.601 123.884 341.388 123.983C340.653 124.323 339.606 124.825 338.351 125.474C335.843 126.771 332.493 128.661 329.136 131.028C325.785 133.39 322.392 136.254 319.829 139.507C317.267 142.759 315.479 146.471 315.479 150.507V158.311V159.311H316.479C317.623 159.311 318.533 160.221 318.533 161.365V165.385C315.795 168.399 314.748 171.328 314.87 174.065C314.995 176.86 316.332 179.281 317.961 181.221C319.592 183.165 321.574 184.7 323.127 185.741C323.908 186.264 324.589 186.669 325.078 186.943C325.322 187.081 325.519 187.186 325.656 187.258C325.725 187.294 325.779 187.322 325.816 187.341L325.86 187.363L325.873 187.369L325.876 187.371L325.878 187.372C325.878 187.372 325.879 187.372 326.319 186.474L325.879 187.372L325.898 187.382L325.918 187.39C328.55 188.542 330.182 189.736 331.152 190.892C332.102 192.025 332.445 193.154 332.445 194.278C332.445 195.862 331.715 197.448 330.908 198.699C330.512 199.312 330.115 199.818 329.818 200.17C329.67 200.345 329.547 200.481 329.464 200.571C329.422 200.616 329.39 200.65 329.37 200.671L329.348 200.693L329.344 200.697L329.344 200.697L329.344 200.698L329.343 200.698L329.051 200.99V201.404V208.713C329.032 208.773 329.008 208.852 328.978 208.947C328.898 209.2 328.782 209.576 328.634 210.068C328.337 211.052 327.912 212.504 327.395 214.379C326.361 218.13 324.959 223.577 323.486 230.373C320.541 243.963 317.308 262.955 316.159 284.568C313.863 327.763 319.885 381.584 353.361 423.599L353.517 423.796L353.747 423.894L353.748 423.894L353.748 423.895L353.749 423.895L353.762 423.901C353.775 423.907 353.797 423.917 353.827 423.93C353.886 423.958 353.978 424.002 354.097 424.063C354.335 424.184 354.681 424.372 355.101 424.632C355.941 425.152 357.064 425.954 358.186 427.076C360.421 429.311 362.644 432.802 362.644 437.906C362.644 442.774 361.106 446.19 359.272 448.375C357.398 450.608 355.28 451.496 354.143 451.496Z" stroke="#159868" stroke-width="2"/>
<path opacity="0.3" d="M597.951 446.71H596.951V447.71V455.824V456.824H597.951C600.247 456.824 601.928 458.304 601.928 460.332V467.995C601.928 469.633 600.179 471.503 597.951 471.503H596.951V472.503V499H375.408V472.503V471.503H374.408C372.112 471.503 370.43 470.023 370.43 467.995V460.332C370.43 458.693 372.18 456.824 374.408 456.824H375.408V455.824V447.71V446.71H374.408C371.336 446.71 365 443.548 365 434.187C365 429.667 367.441 426.766 369.651 424.559C370.941 423.493 372.12 422.746 372.973 422.268C373.404 422.027 373.75 421.855 373.985 421.744C374.102 421.689 374.192 421.649 374.25 421.624C374.279 421.612 374.3 421.603 374.313 421.597L374.325 421.592L374.326 421.592L374.326 421.592L374.327 421.592L374.327 421.592L374.424 421.553L374.513 421.493C395.504 407.401 413.252 385.053 425.749 361.174C438.244 337.299 445.548 311.782 445.548 291.29C445.548 264.139 440.554 246.841 435.482 237.191C432.953 232.154 430.413 228.812 428.484 226.715C427.519 225.667 426.709 224.932 426.13 224.453C425.94 224.295 425.774 224.165 425.637 224.061V217.813V217.43L425.382 217.147L425.382 217.146L425.382 217.146L425.381 217.145L425.381 217.145L425.37 217.132C425.359 217.12 425.342 217.1 425.318 217.072C425.272 217.017 425.202 216.932 425.116 216.821C424.942 216.598 424.701 216.271 424.442 215.862C423.919 215.037 423.344 213.92 423.067 212.691C422.793 211.473 422.817 210.183 423.433 208.939C424.034 207.726 425.254 206.438 427.582 205.29H437.308H438.308V204.29V198.528H463.553L463.955 196.613C441.727 186.87 425.639 162.462 425.637 133.524C426.087 96.09 452.902 66 486.179 66C490.657 66 495.513 66.4483 499.439 67.7522L499.468 67.7618L499.498 67.7696C526.155 74.8507 545.816 101.455 545.816 133.518C545.816 162.458 529.728 186.869 507.498 196.613L507.9 198.528H533.146V204.29V205.29H534.146H543.872C546.2 206.438 547.42 207.726 548.02 208.939C548.636 210.183 548.661 211.473 548.386 212.691C548.109 213.92 547.535 215.037 547.011 215.862C546.752 216.271 546.511 216.598 546.338 216.821C546.251 216.932 546.181 217.017 546.135 217.072C546.112 217.1 546.094 217.12 546.084 217.132L546.073 217.145L546.072 217.145L546.072 217.146L546.071 217.146L546.071 217.147L545.816 217.43V217.813V224.059C545.684 224.159 545.525 224.283 545.343 224.434C544.776 224.902 543.982 225.622 543.038 226.654C541.149 228.718 538.664 232.023 536.19 237.036C531.244 247.064 526.358 263.901 526.358 291.29C526.358 311.779 533.547 337.295 545.986 361.172C558.427 385.053 576.176 407.403 597.397 421.496L597.503 421.566L597.622 421.608L597.622 421.608L597.623 421.608L597.624 421.609L597.64 421.614C597.655 421.62 597.68 421.629 597.714 421.641C597.781 421.667 597.883 421.707 598.015 421.761C598.279 421.871 598.663 422.04 599.126 422.274C600.054 422.743 601.289 423.466 602.519 424.478C604.978 426.502 607.358 429.625 607.358 434.187C607.358 438.802 605.708 441.728 604.022 443.849C601.433 445.979 599.417 446.71 597.951 446.71Z" stroke="#159868" stroke-width="2"/>
<path opacity="0.3" d="M812.564 458.903H813.564C816.042 458.903 821.675 455.979 822 448.09C821.993 443.928 819.922 441.071 817.794 439.219C816.726 438.29 815.655 437.625 814.85 437.193C814.448 436.977 814.116 436.821 813.888 436.72C813.774 436.67 813.686 436.633 813.629 436.61C813.601 436.599 813.58 436.591 813.567 436.586L813.554 436.581L813.553 436.58L813.553 436.58L813.552 436.58L813.461 436.546L813.377 436.494C792.082 423.378 777.729 402.625 768.703 380.466C759.678 358.309 755.95 334.679 755.95 315.694M812.564 458.903L756.95 315.689M812.564 458.903V459.903V466.305V467.305H813.564H813.901C815.766 467.305 816.945 468.599 816.945 470.012V475.403C816.945 476.816 815.766 478.109 813.901 478.109H813.564H812.564V479.109V499M812.564 458.903V499M755.95 315.694C755.95 315.692 755.95 315.691 755.95 315.689H756.95M755.95 315.694C755.95 315.695 755.95 315.695 755.95 315.696L756.95 315.689M755.95 315.694C755.781 290.292 760.692 274.621 765.715 265.264C768.226 260.586 770.759 257.496 772.686 255.565C773.649 254.599 774.459 253.924 775.037 253.485C775.212 253.353 775.365 253.242 775.495 253.151M756.95 315.689C756.613 265.147 776.495 253.691 776.495 253.691M775.495 253.151V253.691H776.495M775.495 253.151V247.289V246.875L775.787 246.583L775.787 246.583L775.787 246.583L775.788 246.582L775.788 246.582L775.789 246.581L775.804 246.565C775.819 246.55 775.843 246.525 775.875 246.49C775.938 246.421 776.032 246.316 776.146 246.177C776.376 245.9 776.684 245.496 776.992 244.996C777.616 243.982 778.191 242.65 778.191 241.224C778.191 239.751 777.242 237.667 773.043 235.73L773.021 235.719L772.998 235.708L773.462 234.822C772.998 235.708 772.998 235.707 772.998 235.707L772.996 235.707L772.993 235.705L772.982 235.699L772.946 235.68C772.916 235.663 772.873 235.64 772.818 235.609C772.708 235.547 772.551 235.458 772.356 235.341C771.967 235.107 771.425 234.763 770.805 234.318C769.571 233.434 767.995 232.128 766.694 230.469C765.394 228.81 764.325 226.741 764.218 224.347C764.113 222.016 764.928 219.514 767.071 216.934V211.899H754.591H753.591V210.899V205.497H744.818V204.497V203.497C751.494 203.497 757.431 199.044 758.667 193.171L758.67 193.158L773.161 128.8L773.172 128.751L773.186 128.71L773.186 128.71L773.186 128.708L773.187 128.706L773.187 128.705L773.188 128.704L773.188 128.704L773.191 128.693C773.196 128.673 773.206 128.639 773.219 128.588C773.244 128.487 773.281 128.324 773.318 128.098C773.394 127.646 773.473 126.943 773.473 125.988C773.473 122.746 772.085 116.223 764.007 106.231C755.985 96.3078 741.406 83.0178 715.194 66.207C713.952 67.0495 712.625 67.6439 710.819 67.9716C684.866 84.8995 671.03 98.0974 663.771 107.761C656.5 117.441 655.872 123.51 656.173 126.214L656.179 126.269V126.325C656.179 126.517 656.227 126.732 656.317 127.093L656.327 127.131C656.398 127.416 656.496 127.807 656.513 128.224L670.982 192.484L670.982 192.486C672.212 198.02 678.146 202.486 684.834 202.486V203.486V204.486H676.398V209.888V210.888H675.398H662.918V215.927M775.495 253.151C775.581 253.091 775.656 253.041 775.72 252.998C775.802 252.944 775.867 252.903 775.913 252.874C775.936 252.86 775.955 252.849 775.969 252.841L775.986 252.83L775.992 252.827L775.994 252.826C775.995 252.825 775.996 252.824 776.495 253.691M776.495 253.691L662.918 215.927M812.564 499H618.099V479.109V478.109H617.099H616.762C614.897 478.109 613.718 476.816 613.718 475.403V470.012C613.718 468.599 614.897 467.305 616.762 467.305H617.099H618.099V466.305V459.903V458.903H617.099C614.678 458.903 609 455.706 609 447.436C609 443.445 611.142 440.326 613.061 438.399C614.185 437.438 615.229 436.716 615.99 436.236C616.373 435.993 616.684 435.813 616.896 435.695C617.002 435.636 617.084 435.592 617.137 435.564C617.163 435.55 617.183 435.54 617.195 435.534L617.208 435.527L617.209 435.526L617.209 435.526L617.209 435.526L617.21 435.526L812.564 499ZM662.918 215.927C664.911 218.374 665.614 220.853 665.614 223.029C665.614 226.651 663.34 229.596 661.254 231.55C660.194 232.544 659.138 233.324 658.349 233.856C657.953 234.122 657.622 234.328 657.387 234.468C657.27 234.539 657.177 234.593 657.111 234.63C657.079 234.648 657.053 234.663 657.035 234.673L657.013 234.685L657.006 234.688L657.004 234.69L657.004 234.69C657.003 234.69 657.003 234.69 656.527 233.811L657.003 234.69L656.971 234.708L656.938 234.722C654.455 235.844 653.187 237.085 652.58 238.22C651.981 239.342 651.96 240.488 652.231 241.571C652.506 242.671 653.076 243.673 653.601 244.418C653.86 244.786 654.1 245.081 654.274 245.281C654.361 245.381 654.43 245.457 654.476 245.506C654.499 245.531 654.516 245.549 654.527 245.56L654.538 245.571L654.538 245.571L654.538 245.572L654.539 245.572L654.539 245.572L654.831 245.864V246.278V252.167L662.918 215.927Z" stroke="#159868" stroke-width="2"/>
</g>
<defs>
<clipPath id="clip0">
<rect width="694" height="340" fill="white"/>
</clipPath>
</defs>
</svg>
