<svg width="1440" height="862" viewBox="0 0 1440 862" fill="none" xmlns="http://www.w3.org/2000/svg">
<g opacity="0.15">
<path d="M679.779 164.206L562.941 214.844L613.617 331.594L730.455 280.957L679.779 164.206Z" fill="#159868"/>
<path d="M846.925 229.024L730.087 279.661L780.763 396.412L897.601 345.774L846.925 229.024Z" fill="#159868"/>
<path d="M913.789 62.7772L796.951 113.415L847.626 230.166L964.464 179.528L913.789 62.7772Z" fill="#159868"/>
<path d="M1080.93 127.595L964.096 178.233L1014.77 294.984L1131.61 244.346L1080.93 127.595Z" fill="#159868"/>
<path d="M1147.68 -38.5979L1030.84 12.0399L1081.51 128.791L1198.35 78.1529L1147.68 -38.5979Z" fill="#159868"/>
<path d="M1314.82 26.2199L1197.98 76.8577L1248.66 193.608L1365.5 142.971L1314.82 26.2199Z" fill="#159868"/>
<path d="M1381.69 -140.026L1264.85 -89.3886L1315.52 27.3621L1432.36 -23.2757L1381.69 -140.026Z" fill="#159868"/>
<path d="M780.582 396.463L663.744 447.101L714.42 563.852L831.258 513.214L780.582 396.463Z" fill="#159868"/>
<path d="M947.729 461.281L830.891 511.919L881.566 628.669L998.404 578.032L947.729 461.281Z" fill="#159868"/>
<path d="M1014.59 295.035L897.754 345.673L948.43 462.424L1065.27 411.786L1014.59 295.035Z" fill="#159868"/>
<path d="M1181.79 359.974L1064.95 410.612L1115.63 527.363L1232.47 476.725L1181.79 359.974Z" fill="#159868"/>
<path d="M1248.53 193.781L1131.69 244.419L1182.37 361.17L1299.21 310.532L1248.53 193.781Z" fill="#159868"/>
<path d="M1415.68 258.599L1298.84 309.237L1349.52 425.988L1466.35 375.35L1415.68 258.599Z" fill="#159868"/>
<path d="M1482.54 92.3532L1365.7 142.991L1416.38 259.742L1533.22 209.104L1482.54 92.3532Z" fill="#159868"/>
<path d="M881.439 628.842L764.601 679.48L815.276 796.231L932.114 745.593L881.439 628.842Z" fill="#159868"/>
<path d="M1048.58 693.66L931.747 744.298L982.422 861.049L1099.26 810.411L1048.58 693.66Z" fill="#159868"/>
<path d="M1115.45 527.414L998.61 578.052L1049.29 694.802L1166.12 644.165L1115.45 527.414Z" fill="#159868"/>
<path d="M1282.59 592.232L1165.76 642.87L1216.43 759.621L1333.27 708.983L1282.59 592.232Z" fill="#159868"/>
<path d="M1349.46 425.986L1232.62 476.624L1283.3 593.374L1400.13 542.737L1349.46 425.986Z" fill="#159868"/>
<path d="M1516.48 490.857L1399.64 541.494L1450.32 658.245L1567.16 607.607L1516.48 490.857Z" fill="#159868"/>
</g>
<rect width="1440" height="861.049" fill="url(#paint0_linear)"/>
<defs>
<linearGradient id="paint0_linear" x1="558.5" y1="663.785" x2="1439.99" y2="660.836" gradientUnits="userSpaceOnUse">
<stop stop-color="white"/>
<stop offset="1" stop-color="white" stop-opacity="0"/>
</linearGradient>
</defs>
</svg>
