<svg width="1072" height="1002" viewBox="0 0 1072 1002" fill="none" xmlns="http://www.w3.org/2000/svg">
<g opacity="0.15">
<path d="M116.838 304.232L0 354.87L50.6757 471.621L167.514 420.983L116.838 304.232Z" fill="#159868"/>
<path d="M283.984 369.05L167.146 419.688L217.822 536.438L334.66 485.801L283.984 369.05Z" fill="#159868"/>
<path d="M350.848 202.804L234.01 253.441L284.685 370.192L401.523 319.554L350.848 202.804Z" fill="#159868"/>
<path d="M517.993 267.621L401.155 318.259L451.831 435.01L568.669 384.372L517.993 267.621Z" fill="#159868"/>
<path d="M584.735 101.428L467.897 152.066L518.573 268.817L635.411 218.179L584.735 101.428Z" fill="#159868"/>
<path d="M751.881 166.246L635.043 216.884L685.719 333.635L802.557 282.997L751.881 166.246Z" fill="#159868"/>
<path d="M818.745 2.15374e-05L701.907 50.6378L752.582 167.389L869.42 116.751L818.745 2.15374e-05Z" fill="#159868"/>
<path d="M217.642 536.49L100.803 587.128L151.479 703.878L268.317 653.24L217.642 536.49Z" fill="#159868"/>
<path d="M384.788 601.307L267.95 651.945L318.625 768.696L435.464 718.058L384.788 601.307Z" fill="#159868"/>
<path d="M451.651 435.061L334.813 485.699L385.489 602.45L502.327 551.812L451.651 435.061Z" fill="#159868"/>
<path d="M618.85 500.001L502.012 550.639L552.687 667.389L669.526 616.751L618.85 500.001Z" fill="#159868"/>
<path d="M685.592 333.807L568.754 384.445L619.429 501.196L736.267 450.558L685.592 333.807Z" fill="#159868"/>
<path d="M852.738 398.625L735.899 449.263L786.575 566.014L903.413 515.376L852.738 398.625Z" fill="#159868"/>
<path d="M919.601 232.38L802.763 283.017L853.439 399.768L970.277 349.13L919.601 232.38Z" fill="#159868"/>
<path d="M318.498 768.869L201.66 819.507L252.335 936.257L369.174 885.619L318.498 768.869Z" fill="#159868"/>
<path d="M485.644 833.686L368.806 884.324L419.481 1001.07L536.32 950.437L485.644 833.686Z" fill="#159868"/>
<path d="M552.508 667.44L435.67 718.078L486.345 834.829L603.183 784.191L552.508 667.44Z" fill="#159868"/>
<path d="M719.653 732.258L602.815 782.896L653.491 899.647L770.329 849.009L719.653 732.258Z" fill="#159868"/>
<path d="M786.517 566.012L669.679 616.65L720.355 733.401L837.193 682.763L786.517 566.012Z" fill="#159868"/>
<path d="M953.541 630.883L836.703 681.521L887.379 798.272L1004.22 747.634L953.541 630.883Z" fill="#159868"/>
<path d="M1020.4 464.637L903.567 515.275L954.242 632.026L1071.08 581.388L1020.4 464.637Z" fill="#159868"/>
</g>
</svg>
