<svg width="39" height="36" viewBox="0 0 39 36" fill="none" xmlns="http://www.w3.org/2000/svg">
<path d="M38.5073 23.522C38.2482 33.7599 30.7858 30.5114 20.0349 30.2393C18.6507 30.2042 16.4291 31.5736 15.1655 31.5198C11.0657 31.3455 13.5508 25.606 11.1048 24.679C8.44937 23.6726 0.72604 27.1654 0.843613 22.5224C1.10277 12.2845 9.58183 4.34655 20.3327 4.61878C31.0834 4.8909 38.7665 13.2841 38.5073 23.522Z" fill="#159F54"/>
<path d="M16.7015 15.3667C16.3001 14.873 13.6795 13.2158 13.6782 13.2158C10.5386 11.5477 8.00172 12.2523 6.64291 12.9318C6.58299 12.9605 6.24989 13.1547 6.15871 13.2206C6.0869 13.2732 6.0869 13.2996 6.13957 13.3188C6.15039 13.3236 6.48955 13.3044 6.65848 13.3236C6.90659 13.3511 7.06945 13.3619 7.13294 13.4195C7.19059 13.4711 7.1642 13.5586 7.09347 13.5836C6.38648 13.8389 4.98678 14.3265 3.63748 15.6807C1.95984 17.3655 1.56563 18.5902 1.07548 20.3948C0.942575 20.8873 0.8634 22.1144 0.861022 22.4212C0.851393 23.4601 0.869462 24.2031 0.895735 24.7316C0.938888 25.5883 1.12339 26.6321 1.12708 26.6489C1.33203 27.6099 1.7178 28.5015 2.17561 29.2361C3.60277 31.6111 6.09523 33.2743 8.99402 33.5619C9.429 33.6183 9.87718 33.647 10.3372 33.647C11.0335 33.647 11.7129 33.58 12.3661 33.4505C12.7411 33.3977 13.1953 33.3463 13.4673 33.3534C14.3648 33.3774 14.8897 33.5463 15.4218 33.8196C15.423 33.8196 15.423 33.8207 15.4242 33.8207C15.4253 33.8207 15.4253 33.822 15.4265 33.822C15.4277 33.822 15.4277 33.8232 15.4289 33.8232C15.4301 33.8232 15.4301 33.8244 15.4313 33.8244C16.5853 34.668 18.0652 35.1701 19.6794 35.1701H19.6766C21.2908 35.1701 22.7706 34.668 23.9247 33.8244C23.9259 33.8244 23.9259 33.8232 23.9271 33.8232C23.9283 33.8232 23.9283 33.822 23.9295 33.822C23.9307 33.822 23.9307 33.8207 23.9319 33.8207C23.9331 33.8207 23.9331 33.8196 23.9342 33.8196C24.4664 33.5463 24.9912 33.3774 25.8888 33.3534C26.1608 33.3463 26.6149 33.3977 26.99 33.4505C27.6431 33.58 28.3225 33.647 29.0188 33.647C29.4788 33.647 29.927 33.6183 30.362 33.5619C33.2608 33.2743 35.7533 31.6111 37.1804 29.2361C37.6382 28.5015 38.0241 27.6099 38.229 26.6489C38.2326 26.6321 38.4171 25.5883 38.4603 24.7316C38.4866 24.2031 38.5046 23.4601 38.495 22.4212C38.4926 22.1144 38.4136 20.8873 38.2805 20.3948C37.7904 18.5902 37.3962 17.3655 35.7185 15.6807C34.3692 14.3265 32.9697 13.8389 32.2626 13.5836C32.1918 13.5586 32.1654 13.4711 32.2231 13.4195C32.2866 13.3619 32.4494 13.3511 32.6975 13.3236C32.8665 13.3044 33.2056 13.3236 33.2165 13.3188C33.2691 13.2996 33.2691 13.2732 33.1973 13.2206C33.1061 13.1547 32.773 12.9605 32.7131 12.9318C31.3543 12.2523 28.8174 11.5477 25.6779 13.2158C25.6766 13.2158 23.056 14.873 22.6545 15.3667C21.727 16.5111 21.5453 18.3729 19.677 18.371C17.8258 18.3689 17.629 16.5111 16.7015 15.3667Z" fill="#225602"/>
<path d="M17.9721 25.2613C17.3051 28.7992 14.1976 31.4752 10.4659 31.4752C6.37048 31.4752 3.02636 28.25 2.83615 24.2021L2.83377 24.2044C2.67685 22.3273 2.924 19.7818 4.18176 18.1246C4.90931 17.1665 6.13628 16.0184 7.40593 15.6296C7.45063 15.6159 7.53075 15.5832 7.53907 15.5452C7.57236 15.3835 7.09208 15.4073 7.24663 15.3026C7.39998 15.2016 7.59495 15.1065 8.03837 15.0839C8.25355 15.0744 8.66963 15.1231 8.71362 14.9638C8.71599 14.9472 8.71481 14.9294 8.71005 14.9115C8.66606 14.7201 8.03243 14.6345 8.49963 14.5323C12.6676 13.6288 16.2851 17.6719 16.2887 17.6743C17.0507 18.3294 18.4785 18.9059 19.5983 18.9059H19.7574C20.8773 18.9059 22.305 18.3294 23.067 17.6743C23.0706 17.6719 26.6882 13.6288 30.8561 14.5323C31.3233 14.6345 30.6897 14.7201 30.6457 14.9115C30.6409 14.9294 30.6398 14.9472 30.6421 14.9638C30.6861 15.1231 31.1022 15.0744 31.3174 15.0839C31.7608 15.1065 31.9558 15.2016 32.1091 15.3026C32.2637 15.4073 31.7834 15.3835 31.8167 15.5452C31.825 15.5832 31.9051 15.6159 31.9498 15.6296C33.2195 16.0184 34.4464 17.1665 35.174 18.1246C36.4318 19.7818 36.6789 22.3273 36.522 24.2044L36.5196 24.2021C36.3294 28.25 32.9853 31.4752 28.8898 31.4752C25.1582 31.4752 22.0506 28.7992 21.3837 25.2613H17.9721Z" fill="#A5D58E"/>
<path d="M6.0504 10.1779C7.11926 9.41918 11.0496 7.75199 14.0443 12.1276C14.9631 13.4702 15.2605 15.2899 15.6652 16.1894C16.8086 18.7302 18.7061 18.6903 19.5792 18.7701C20.9229 18.8927 23.1401 18.0219 24.0201 16.7939C25.2327 15.1016 26.2899 13.8801 26.3189 10.0085C26.3448 6.53418 25.2405 4.51558 24.1927 3.20623C22.5983 1.21378 21.7613 0.885199 20.2109 0.304941C18.1489 -0.466715 16.1865 0.455681 16.5056 0.570639C17.7628 1.02334 17.9486 1.77003 17.3567 1.46546C13.1281 -0.710419 3.24897 3.05584 4.19253 12.4914C4.19253 12.4914 5.0285 10.9032 6.0504 10.1779Z" fill="#E13346"/>
<path d="M31.6216 18.357C31.4012 18.237 31.1723 18.1275 30.9771 18.0666C29.9869 17.758 31.2022 17.6275 31.0942 17.5636C30.3418 17.1188 29.4008 17.5699 29.494 17.3583C29.5851 17.1518 30.1469 17.1093 30.0203 17.0168C29.9007 16.9294 29.2136 16.8148 27.3456 17.6492C24.8346 18.7709 23.9349 21.2237 23.9349 21.2237L23.9413 21.2219C23.3909 22.5431 23.3415 24.0733 23.9249 25.5032C25.0969 28.3751 28.3749 29.7532 31.2468 28.5814C34.1186 27.4094 35.4968 24.1314 34.3249 21.2596C33.7872 19.9418 32.8035 18.9437 31.6216 18.357Z" fill="#FCFCFC"/>
<path d="M8.10706 18.3217C8.32901 18.2046 8.55928 18.0981 8.75532 18.0398C9.7494 17.744 8.57343 17.5827 8.64476 17.5352C9.3729 17.0516 10.3379 17.5635 10.2474 17.3508C10.1591 17.143 9.59783 17.0933 9.72562 17.0024C9.84641 16.9166 10.619 16.781 12.4761 17.6396C14.9722 18.7937 15.756 21.2881 15.756 21.2881L15.7563 21.2883C16.2895 22.6166 16.3122 24.1451 15.7103 25.5673C14.5012 28.4238 11.2056 29.7591 8.3491 28.5501C5.49275 27.3411 4.15725 24.0454 5.36638 21.1889C5.92108 19.8783 6.91766 18.8931 8.10706 18.3217Z" fill="#FCFCFC"/>
<path d="M12.9723 23.633C12.9723 25.0123 11.8542 26.1302 10.4751 26.1302C9.09586 26.1302 7.97778 25.0123 7.97778 23.633C7.97778 22.2538 9.09586 21.1357 10.4751 21.1357C11.8542 21.1357 12.9723 22.2538 12.9723 23.633Z" fill="#271531"/>
<path d="M13.1215 22.2936C13.1215 23.0154 12.5363 23.6007 11.8144 23.6007C11.0925 23.6007 10.5073 23.0154 10.5073 22.2936C10.5073 21.5716 11.0925 20.9865 11.8144 20.9865C12.5363 20.9865 13.1215 21.5716 13.1215 22.2936Z" fill="#FCFCFC"/>
<path d="M31.5478 23.8015C31.5478 25.1807 30.4297 26.2988 29.0506 26.2988C27.6713 26.2988 26.5532 25.1807 26.5532 23.8015C26.5532 22.4222 27.6713 21.3043 29.0506 21.3043C30.4297 21.3043 31.5478 22.4222 31.5478 23.8015Z" fill="#271531"/>
<path d="M31.6972 22.462C31.6972 23.184 31.1119 23.7692 30.3901 23.7692C29.6681 23.7692 29.083 23.184 29.083 22.462C29.083 21.7402 29.6681 21.1549 30.3901 21.1549C31.1119 21.1549 31.6972 21.7402 31.6972 22.462Z" fill="#FCFCFC"/>
<path d="M5.47316 9.9977C6.15613 9.29 8.31453 7.62508 11.7186 8.71724C14.3746 9.56926 15.6085 11.9317 17.1796 14.1428C18.7506 16.3539 21.2125 16.611 23.047 15.1198C24.6982 13.7775 25.8777 13.1232 25.9843 13.0699C26.0067 13.0586 25.3735 16.0529 23.3678 17.7332C22.0541 18.8339 20.6628 19.1053 19.2663 18.984C18.2235 18.8934 16.2428 18.2904 15.3278 16.3779C14.551 14.7544 13.6146 11.1776 9.68761 10.5257C6.03368 9.91912 4.20316 12.5428 4.17831 12.5026C4.09486 12.3678 4.68237 10.8171 5.47316 9.9977Z" fill="#B5335E"/>
<path d="M4.48535 26.8172C5.82371 25.6773 7.92778 25.0771 10.1975 25.3541C12.7466 25.6652 14.8269 27 15.728 28.6901C15.728 28.6901 11.4002 30.4482 9.8785 30.2147C8.26386 29.9671 4.48535 26.8172 4.48535 26.8172Z" fill="#A5D58E"/>
<path d="M35.2759 26.8172C33.9375 25.6773 31.8334 25.0771 29.5638 25.3541C27.0146 25.6652 24.9343 27 24.0332 28.6901C24.0332 28.6901 28.3611 30.4482 29.8827 30.2147C31.4974 29.9671 35.2759 26.8172 35.2759 26.8172Z" fill="#A5D58E"/>
<path d="M16.1893 28.9812C16.1893 28.9812 16.1584 29.5654 16.6962 29.3925C16.884 29.3323 16.9953 29.3682 17.189 29.4642C19.5521 30.6354 26.3662 34.6903 28.5672 35.9637C28.8055 36.1016 29.1234 35.8182 28.9609 35.5957L26.6741 32.4305C26.6645 32.4173 25.399 30.7377 25.3834 30.733L16.794 28.6115C16.7666 28.6033 16.7367 28.6118 16.7177 28.6332L16.1893 28.9812Z" fill="#F7AE81"/>
<path d="M16.9349 29.0741C19.7405 30.3669 28.6313 35.7529 28.6313 35.7529C28.7757 35.8019 28.8074 35.7291 28.7633 35.6361L22.9931 27.93C22.9657 27.8936 22.9221 27.8731 22.8767 27.8754L17.1353 28.3564C17.092 28.3586 16.5546 28.4369 16.5307 28.4729C16.5307 28.4729 15.8778 28.5869 16.9349 29.0741Z" fill="#362740"/>
<path d="M22.1332 25.0924C19.9632 23.4855 17.7012 24.3919 16.9305 26.1225C16.3576 27.4085 16.7161 27.6441 16.2116 28.8126C15.9981 29.3069 16.526 29.6327 16.8294 29.2789C17.3733 28.6443 17.8847 28.7752 18.548 28.9307C21.7967 29.692 31.9839 32.9612 31.9839 32.9612C32.0883 32.9926 32.1608 32.8583 32.0772 32.7881L22.1329 25.1008" fill="#FF903D"/>
<path d="M19.9298 27.1839C20.0586 27.2632 20.1881 27.4985 20.0646 27.6669C19.9393 27.8378 19.7614 27.9225 19.2586 27.8251C18.5591 27.6894 17.7815 27.6224 17.8194 27.0433C17.8496 26.5807 18.4265 26.264 18.993 26.5787C19.5367 26.8807 19.6589 27.017 19.9298 27.1839Z" fill="#E2DCDE"/>
</svg>
